<svg width="33" height="29" viewBox="0 0 33 29" fill="none" xmlns="http://www.w3.org/2000/svg">
<path d="M4.83329 1.375H28.1666C28.9402 1.375 29.682 1.68229 30.229 2.22927C30.776 2.77625 31.0833 3.51812 31.0833 4.29167V13.0417C31.0833 16.9094 29.5468 20.6187 26.8119 23.3536C24.077 26.0885 20.3677 27.625 16.5 27.625C14.5848 27.625 12.6885 27.2478 10.9192 26.5149C9.14983 25.782 7.54217 24.7078 6.18799 23.3536C3.45308 20.6187 1.91663 16.9094 1.91663 13.0417V4.29167C1.91663 3.51812 2.22392 2.77625 2.7709 2.22927C3.31788 1.68229 4.05974 1.375 4.83329 1.375V1.375Z" stroke="white" stroke-width="2" stroke-linecap="round" stroke-linejoin="round"/>
<path d="M10.6666 11.5833L16.5 17.4166L22.3333 11.5833" stroke="white" stroke-width="2" stroke-linecap="round" stroke-linejoin="round"/>
</svg>
