<svg width="29" height="24" viewBox="0 0 29 24" fill="none" xmlns="http://www.w3.org/2000/svg">
<path d="M6.1 23.6C4.5 23.6 3.2 23.0333 2.2 21.9C1.2 20.7 0.7 19.1667 0.7 17.3C0.7 14.1 1.66667 10.9333 3.6 7.8C5.6 4.6 8 2.26666 10.8 0.799999L13 4.6C11.3333 5.73333 9.93333 6.93333 8.8 8.2C7.73333 9.4 7.06667 10.9333 6.8 12.8C8.13333 12.8667 9.23333 13.4667 10.1 14.6C11.0333 15.6667 11.5 16.8667 11.5 18.2C11.5 19.6 10.9667 20.8667 9.9 22C8.9 23.0667 7.63333 23.6 6.1 23.6ZM21.7 23.6C20.2333 23.6 18.9667 23.0333 17.9 21.9C16.8333 20.7 16.3 19.1667 16.3 17.3C16.3 14.1 17.2667 10.9333 19.2 7.8C21.2 4.6 23.6333 2.26666 26.5 0.799999L28.5 4.6C26.9 5.73333 25.5333 6.93333 24.4 8.2C23.3333 9.4 22.7333 10.9333 22.6 12.8C23.8667 12.8667 24.9333 13.4667 25.8 14.6C26.7333 15.6667 27.2 16.8667 27.2 18.2C27.2 19.6 26.6333 20.8667 25.5 22C24.4333 23.0667 23.1667 23.6 21.7 23.6Z" fill="black"/>
</svg>
